HIERARCHY
ROOT hip
{
	OFFSET 0.000000 0.000000 0.000000 
	CHANNELS 6 Xposition Yposition Zposition Xrotation Zrotation Yrotation
	JOINT abdomen
	{
		OFFSET 0.000000 3.402643 0.000000 
		CHANNELS 3 Xrotation Zrotation Yrotation
		JOINT chest
		{
			OFFSET 0.000000 8.438565 -0.680529 
			CHANNELS 3 Xrotation Zrotation Yrotation
			JOINT neck
			{
				OFFSET 0.000000 10.207942 -0.272212 
				CHANNELS 3 Xrotation Zrotation Yrotation
				JOINT head
				{
					OFFSET 0.000000 3.130431 0.000000 
					CHANNELS 3 Xrotation Zrotation Yrotation
					End Site
					{
						OFFSET 0.000000 3.130435 0.000000 
					}
				}
			}
			JOINT lCollar
			{
				OFFSET 3.470700 6.669187 -0.816635 
				CHANNELS 3 Yrotation Zrotation Xrotation
				JOINT lShldr
				{
					OFFSET 3.198488 0.000000 0.000000 
					CHANNELS 3 Zrotation Yrotation Xrotation
					JOINT lForeArm
					{
						OFFSET 10.139888 0.000000 0.000000 
						CHANNELS 3 Yrotation Zrotation Xrotation
						JOINT lHand
						{
							OFFSET 8.370511 0.000000 0.000000 
							CHANNELS 3 Zrotation Yrotation Xrotation
							End Site
							{
								OFFSET 4.083176 0.000000 0.000000 
							}
						}
					}
				}
			}
			JOINT rCollar
			{
				OFFSET -3.470700 6.669187 -0.816635 
				CHANNELS 3 Yrotation Zrotation Xrotation
				JOINT rShldr
				{
					OFFSET -3.198488 0.000000 0.000000 
					CHANNELS 3 Zrotation Yrotation Xrotation
					JOINT rForeArm
					{
						OFFSET -10.139888 0.000000 0.000000 
						CHANNELS 3 Yrotation Zrotation Xrotation
						JOINT rHand
						{
							OFFSET -8.370511 0.000000 0.000000 
							CHANNELS 3 Zrotation Yrotation Xrotation
							End Site
							{
								OFFSET -4.083176 0.000000 0.000000 
							}
						}
					}
				}
			}
		}
	}
	JOINT lThigh
	{
		OFFSET 5.308129 -1.633274 1.361059 
		CHANNELS 3 Xrotation Zrotation Yrotation
		JOINT lShin
		{
			OFFSET -2.041588 -20.007561 0.000000 
			CHANNELS 3 Xrotation Zrotation Yrotation
			JOINT lFoot
			{
				OFFSET 0.000000 -19.190928 -1.224953 
				CHANNELS 3 Xrotation Yrotation Zrotation
				End Site
				{
					OFFSET 0.000000 -2.449906 4.627600 
				}
			}
		}
	}
	JOINT rThigh
	{
		OFFSET -5.308129 -1.633274 1.361059 
		CHANNELS 3 Xrotation Zrotation Yrotation
		JOINT rShin
		{
			OFFSET 2.041588 -20.007561 0.000000 
			CHANNELS 3 Xrotation Zrotation Yrotation
			JOINT rFoot
			{
				OFFSET 0.000000 -19.190928 -1.224953 
				CHANNELS 3 Xrotation Yrotation Zrotation
				End Site
				{
					OFFSET 0.000000 -2.449906 4.627600 
				}
			}
		}
	}
}
MOTION
Frames: 18
Frame Time: 0.033333
-4.691114 41.225658 47.638962 -18.115234 -3.876954 133.934891 19.121092 -0.625000 4.121093 -11.093750 5.312500 6.132813 -15.351563 6.396484 19.102650 5.976562 -11.367187 20.380861 2.109375 1.494141 -0.068614 -65.820313 -6.083984 0.019531 -95.937500 -3.046875 -32.802216 5.898442 -119.072273 -3.846426 8.779296 4.648438 -0.361328 64.443359 10.126952 20.734138 64.267578 3.222656 -38.740780 8.544922 8.564453 1.416016 -58.107254 32.268108 12.674996 58.424107 0.258862 -3.485838 -22.294201 -8.763313 -10.898070 -3.173578 -8.775066 -14.191298 21.029972 1.034818 1.125866 -24.360489 -7.725044 3.831665 
-4.684942 41.217670 47.621784 -18.291014 -3.691406 133.759140 19.121094 -0.458984 4.179610 -10.742187 5.312500 6.319263 -15.527344 6.220703 19.111326 5.976562 -11.367187 20.380861 2.109375 1.318359 -0.058818 -65.634766 -6.250000 -0.030360 -95.937500 -3.046875 -32.802216 5.917976 -118.896477 -3.856207 8.955078 4.472656 -0.341797 64.335938 10.283203 20.595703 64.267578 3.222656 -38.740780 8.369141 8.398438 1.407678 -58.049458 32.376251 12.760677 58.414665 0.268752 -3.470456 -22.392778 -8.884808 -11.178696 -3.174233 -8.584531 -14.181828 20.856297 1.050710 1.305063 -24.326925 -7.832610 3.729079 
-4.679740 41.214645 47.606171 -18.291016 -3.876953 133.759766 19.121092 -0.625000 4.121093 -10.556642 5.478516 6.328125 -15.703126 6.220702 19.111326 5.800781 -11.542970 20.380861 2.285156 1.142578 -0.058594 -65.615234 -6.406250 -0.107422 -95.791016 -2.978516 -32.597153 5.917976 -118.896477 -3.856207 8.955078 4.472656 -0.341797 64.228516 10.429687 20.411924 64.335938 3.291016 -38.896484 7.988280 8.261718 1.210938 -58.072159 32.389038 12.588720 58.600094 0.258881 -3.484226 -22.704855 -8.743498 -10.948677 -3.183142 -8.598661 -14.006641 20.857035 1.034956 1.302489 -24.498632 -7.927307 3.668600 
-4.665344 41.206902 47.583309 -18.466797 -3.867188 133.759766 18.945313 -0.800781 4.072266 -10.556642 5.830078 6.328125 -15.703124 6.044921 19.112352 5.625000 -11.542970 20.388672 2.285156 0.791016 -0.048828 -65.585938 -6.376953 -0.245225 -95.937500 -2.890625 -32.606926 5.947264 -118.720711 -3.847656 8.955078 4.130859 -0.292969 64.140625 10.419923 20.314268 64.394531 3.369141 -39.043541 7.988281 8.085938 1.210938 -58.229153 32.545921 12.435802 58.600681 0.073330 -3.583758 -22.757446 -8.559212 -11.043185 -3.183151 -8.598657 -14.006641 20.671385 1.034964 1.293525 -24.471331 -8.057612 3.596992 
-4.648649 41.200489 47.551617 -18.457031 -4.052734 133.749313 18.759768 -1.015625 4.179514 -10.371094 6.181641 6.534256 -15.878905 5.869141 19.122095 5.625000 -11.542970 20.388672 2.285156 0.439453 -0.029297 -65.380859 -6.347656 -0.391703 -95.947266 -3.076172 -32.451176 5.615235 -118.710945 -3.465596 8.779296 4.130859 -0.273438 64.062500 10.791016 20.363157 64.326172 3.388672 -39.258392 8.164063 8.076173 1.222077 -58.278206 32.419140 12.524698 58.782772 0.083012 -3.413230 -23.083256 -8.807720 -11.037645 -3.338930 -8.519593 -14.011239 20.661613 1.034954 1.293052 -24.448704 -8.154365 3.717277 
-4.638001 41.188999 47.513626 -18.457031 -4.228516 133.573502 18.583984 -1.347656 4.072037 -10.009766 6.347656 6.553813 -16.406250 5.869141 19.122093 5.449219 -11.542970 20.398438 2.285156 0.087891 -0.009766 -65.332031 -6.474609 -0.606568 -96.093750 -2.988281 -32.450665 5.615235 -118.710945 -3.465596 8.779296 4.130859 -0.273438 64.042969 10.947266 20.283203 64.335938 3.330078 -39.716797 8.339843 8.076172 1.230469 -58.452198 32.427334 12.649427 58.749763 0.248752 -3.670490 -23.197418 -8.513873 -10.889191 -3.348823 -8.724594 -13.842744 20.847261 1.034943 1.302015 -24.463287 -8.094450 3.572506 
-4.626024 41.180771 47.469700 -18.457031 -4.228516 133.573502 18.583982 -1.523437 4.013672 -9.833984 6.347656 6.563580 -16.933594 5.869141 19.122095 5.625000 -11.191406 20.388729 2.285156 0.087891 -0.009766 -65.273438 -6.406250 -0.888672 -96.250000 -3.085937 -32.304688 5.458988 -118.701172 -3.631613 8.779297 4.306641 -0.303468 63.730465 11.132813 20.126953 64.404297 3.242188 -39.941959 8.515625 7.890625 1.240234 -58.254902 32.406006 12.705792 58.947922 0.082801 -3.440599 -23.198135 -8.538502 -10.893352 -3.339499 -8.912227 -14.027665 20.846807 1.044719 1.303613 -24.519096 -7.780177 3.763148 
-4.611143 41.173634 47.415020 -18.291016 -4.228463 133.584335 18.583984 -1.689453 3.954791 -9.667969 6.171875 6.572266 -17.119141 6.210938 18.936602 5.625000 -11.191406 20.388729 2.285156 0.263672 -0.019531 -65.234375 -6.357422 -1.103516 -96.542969 -3.056641 -32.499481 5.458988 -118.701172 -3.631613 8.779297 4.482423 -0.332795 63.847660 11.093751 20.031179 64.335938 3.271485 -40.166012 8.515625 8.066406 1.240234 -58.191463 32.498375 12.918647 58.952236 0.094185 -3.579715 -23.159382 -8.265587 -10.682081 -3.348918 -8.890515 -14.203428 20.857035 1.034962 1.302491 -24.357693 -7.734183 3.802757 
-4.606183 41.171936 47.368202 -18.115234 -4.228463 133.407837 18.759766 -1.689453 3.955078 -9.843750 5.820313 6.563490 -17.294924 6.562500 18.916014 5.625000 -11.015625 20.388758 2.460938 0.615234 -0.039167 -65.195320 -6.308594 -1.337891 -96.689453 -2.958984 -32.509766 5.439454 -118.876953 -3.475349 8.945312 4.853516 -0.224609 63.828125 11.249999 19.960934 64.335938 3.369141 -40.537109 8.515625 8.066406 1.240234 -57.773468 32.441525 13.197165 58.934418 0.250543 -3.697340 -23.405695 -8.021872 -10.771103 -2.987772 -9.037314 -14.215334 20.495502 1.035002 1.285042 -24.261944 -7.258220 3.912836 
-4.607271 41.175323 47.324886 -18.115234 -4.228463 133.232056 18.935547 -1.855372 3.906171 -10.029297 5.468750 6.533203 -17.304689 7.089843 18.896482 5.625000 -10.839843 20.388788 2.636719 0.966797 -0.058594 -65.341797 -6.279297 -1.494141 -96.982422 -2.919922 -32.705078 5.576194 -119.062508 -3.465567 8.945313 5.029297 -0.254762 63.828125 11.249999 19.960934 64.150391 3.193359 -40.908745 8.535156 8.037110 1.417383 -57.568386 32.421906 13.075809 59.133682 0.074964 -3.444112 -23.495146 -8.277104 -10.944046 -2.831843 -9.096067 -14.220585 20.159973 1.034719 1.093574 -24.089138 -7.126331 3.803313 
-4.615377 41.172787 47.277103 -17.929689 -4.228516 133.222641 19.111328 -1.855469 3.905934 -10.029297 5.292969 6.533204 -17.490234 7.255858 18.710938 5.800781 -10.839844 20.214842 2.636719 0.966797 -0.058594 -65.322266 -6.074219 -1.641657 -97.119141 -2.978516 -32.900394 5.898442 -119.072273 -3.846426 9.121094 5.371094 -0.322266 63.828125 11.357421 19.687500 64.033203 3.408203 -41.279293 8.691406 7.890625 1.251342 -57.340176 32.369667 13.473495 59.100609 0.258399 -3.691090 -23.531620 -8.149250 -10.890050 -2.480502 -9.185677 -14.573532 19.994347 1.031935 1.075401 -23.946421 -7.014496 4.087686 
-4.624573 41.164436 47.245403 -18.115234 -4.228463 133.056274 19.277344 -1.738281 4.121094 -10.029297 5.292969 6.533204 -17.841797 7.431641 18.702436 6.162109 -10.839844 20.195314 2.636719 0.966797 -0.058594 -65.332031 -5.898438 -1.641627 -97.412109 -2.939453 -33.105469 5.898442 -119.072273 -3.846426 9.121094 5.371094 -0.322266 63.828125 11.357421 19.687500 63.916016 3.476563 -41.718750 8.857422 7.187500 1.259766 -57.650513 32.650860 13.345847 59.292606 0.112177 -3.615234 -23.549011 -8.221080 -10.735011 -2.304878 -9.242283 -14.579462 19.802439 1.211325 1.269301 -23.965622 -6.902572 4.147278 
-4.647680 41.151615 47.227982 -18.291016 -4.228463 133.066772 19.277344 -1.738281 4.121094 -10.205079 5.478516 6.699219 -18.193359 7.431641 18.701174 6.689453 -10.839843 20.175783 2.460938 0.966797 -0.058594 -65.322266 -5.878906 -1.709985 -97.695313 -3.076172 -33.329559 6.220718 -119.082039 -4.237050 8.945313 5.195313 -0.284087 63.867188 11.308593 19.482424 63.798828 3.271485 -41.875557 8.476563 6.523438 1.065564 -57.704319 32.548180 13.281809 59.452229 0.258418 -3.697633 -23.345581 -8.221472 -10.710387 -2.832071 -9.078695 -14.395302 19.978258 1.208035 1.287271 -23.758270 -7.003863 4.094132 
-4.677805 41.133949 47.214794 -18.457031 -4.052734 133.046188 19.453125 -1.738281 4.121093 -10.205079 5.654297 6.699220 -18.730469 7.422256 18.525644 7.041016 -11.191407 19.978573 2.460938 0.966797 -0.058594 -65.322266 -5.703125 -1.709955 -97.988281 -3.056640 -33.358856 6.708994 -119.101563 -4.617908 8.945313 5.195313 -0.284087 63.759769 11.455078 19.308580 63.613281 3.271484 -42.167969 8.300781 6.699219 1.054688 -58.063164 32.741196 13.087480 59.452229 0.258418 -3.697632 -23.210510 -8.018366 -10.768293 -2.831839 -9.096068 -14.220583 19.616350 1.210611 1.269685 -23.728853 -7.167066 4.002338 
-4.713011 41.110600 47.204029 -18.632811 -4.228516 133.046158 19.433594 -1.630859 4.345425 -10.195313 5.830078 6.895523 -19.091797 7.421875 18.349611 7.392578 -11.367187 19.785156 2.285156 0.791016 -0.048828 -65.312500 -5.693360 -1.777344 -98.281250 -3.007812 -33.564453 7.187517 -119.130859 -4.842515 8.945313 5.029297 -0.254762 63.535156 11.279297 19.123003 63.632816 3.378906 -42.549404 8.642578 6.162110 1.075269 -58.697533 32.828819 12.771313 59.644592 0.103776 -3.617373 -23.162298 -8.237952 -10.664614 -2.987639 -9.055723 -14.029322 19.783121 1.201022 1.276474 -23.713131 -7.248099 3.939223 
-4.749668 41.084469 47.183582 -18.984375 -4.228516 133.222656 19.257814 -1.630859 4.345425 -10.371094 6.005860 6.885787 -19.628906 7.587890 18.173826 7.753907 -11.718750 19.597624 2.109375 0.966797 -0.048993 -65.468750 -5.488282 -1.934528 -98.564453 -3.134766 -33.788528 8.271496 -119.365234 -5.985074 8.964844 4.824219 -0.410156 63.554684 11.005860 18.720705 63.583988 3.408203 -42.763962 8.447266 5.146484 0.888672 -59.176929 32.790562 12.423425 59.820244 0.092647 -3.631945 -23.416779 -8.084403 -10.608888 -3.163146 -8.848918 -13.496547 19.783121 1.201022 1.276474 -23.795002 -7.784790 3.817140 
-4.779793 41.044064 47.143532 -19.169922 -4.228463 133.241821 19.257813 -1.464844 4.404297 -10.195313 6.181641 6.895583 -20.166016 7.402343 18.007814 7.753907 -11.718750 19.597624 2.109375 1.142571 -0.058789 -65.644531 -5.498046 -1.943359 -98.828125 -3.056641 -34.169403 9.345720 -119.619141 -6.971381 8.779296 4.648438 -0.361328 63.476563 10.996093 18.652342 63.603516 3.359375 -43.212891 8.447266 5.146484 0.888672 -59.627277 32.732937 12.445743 60.186897 0.248623 -3.398880 -23.597511 -8.438552 -11.060240 -3.515297 -8.541477 -13.116084 19.974669 1.034745 1.074896 -23.897240 -8.184299 3.529788 
-4.803507 41.002079 47.094662 -19.345703 -4.228463 133.408569 19.433592 -1.298828 4.453125 -10.009766 6.347656 7.081157 -21.044922 7.402343 18.007813 7.753906 -11.367187 19.423828 2.109375 1.142571 -0.058789 -65.654297 -5.683593 -1.875000 -99.091797 -2.978516 -34.550781 10.498055 -120.058594 -7.801421 8.603516 4.306641 -0.292969 63.457035 11.044923 18.107340 63.554684 3.398438 -43.437500 8.085938 5.000000 0.693359 -60.057766 32.782547 12.179270 60.531178 0.424549 -3.481114 -23.451254 -8.382556 -11.017758 -3.680345 -8.304701 -12.761236 20.150204 1.034706 1.093100 -23.922935 -8.782347 3.131573 
